<mxfile host="65bd71144e">
    <diagram id="cBjrDL-RMfkCsSpCfDcc" name="Page-4">
        <mxGraphModel dx="1069" dy="814" grid="1" gridSize="10" guides="1" tooltips="1" connect="1" arrows="1" fold="1" page="1" pageScale="1" pageWidth="1169" pageHeight="827" math="0" shadow="0">
            <root>
                <mxCell id="0"/>
                <mxCell id="1" parent="0"/>
                <mxCell id="vjGuZrix1k9wX8aD3EJZ-27" style="edgeStyle=none;html=1;fillColor=#e51400;strokeColor=#B20000;strokeWidth=3;" edge="1" parent="1" source="vjGuZrix1k9wX8aD3EJZ-1" target="vjGuZrix1k9wX8aD3EJZ-13">
                    <mxGeometry relative="1" as="geometry"/>
                </mxCell>
                <mxCell id="vjGuZrix1k9wX8aD3EJZ-1" value="collection : users&lt;br&gt;doc : user.uid&lt;br&gt;(uid comes from auth)" style="swimlane;fontStyle=0;align=center;verticalAlign=top;childLayout=stackLayout;horizontal=1;startSize=55;horizontalStack=0;resizeParent=1;resizeParentMax=0;resizeLast=0;collapsible=0;marginBottom=0;html=1;fillColor=#1ba1e2;fontColor=#ffffff;strokeColor=#006EAF;" vertex="1" parent="1">
                    <mxGeometry x="500" y="80" width="290" height="203" as="geometry"/>
                </mxCell>
                <mxCell id="vjGuZrix1k9wX8aD3EJZ-2" value="attributes" style="text;html=1;strokeColor=#B09500;fillColor=#e3c800;align=center;verticalAlign=middle;spacingLeft=4;spacingRight=4;overflow=hidden;rotatable=0;points=[[0,0.5],[1,0.5]];portConstraint=eastwest;fontColor=#000000;" vertex="1" parent="vjGuZrix1k9wX8aD3EJZ-1">
                    <mxGeometry y="55" width="290" height="20" as="geometry"/>
                </mxCell>
                <mxCell id="vjGuZrix1k9wX8aD3EJZ-3" value="&amp;nbsp;user.uid: hash numerical from auth" style="text;html=1;strokeColor=none;fillColor=none;align=left;verticalAlign=middle;spacingLeft=4;spacingRight=4;overflow=hidden;rotatable=0;points=[[0,0.5],[1,0.5]];portConstraint=eastwest;" vertex="1" parent="vjGuZrix1k9wX8aD3EJZ-1">
                    <mxGeometry y="75" width="290" height="20" as="geometry"/>
                </mxCell>
                <mxCell id="vjGuZrix1k9wX8aD3EJZ-10" value="&amp;nbsp; user_email : string" style="shape=partialRectangle;html=1;top=1;align=left;dashed=1;" vertex="1" parent="vjGuZrix1k9wX8aD3EJZ-1">
                    <mxGeometry y="95" width="290" height="20" as="geometry"/>
                </mxCell>
                <mxCell id="vjGuZrix1k9wX8aD3EJZ-11" value="&amp;nbsp; tax_id: string with numerical" style="shape=partialRectangle;html=1;top=1;align=left;dashed=1;" vertex="1" parent="vjGuZrix1k9wX8aD3EJZ-1">
                    <mxGeometry y="115" width="290" height="20" as="geometry"/>
                </mxCell>
                <mxCell id="vjGuZrix1k9wX8aD3EJZ-12" value="&amp;nbsp; tags: [ ]" style="shape=partialRectangle;html=1;top=1;align=left;dashed=1;" vertex="1" parent="vjGuZrix1k9wX8aD3EJZ-1">
                    <mxGeometry y="135" width="290" height="20" as="geometry"/>
                </mxCell>
                <mxCell id="vjGuZrix1k9wX8aD3EJZ-6" value="" style="line;strokeWidth=1;fillColor=none;align=left;verticalAlign=middle;spacingTop=-1;spacingLeft=3;spacingRight=3;rotatable=0;labelPosition=right;points=[];portConstraint=eastwest;" vertex="1" parent="vjGuZrix1k9wX8aD3EJZ-1">
                    <mxGeometry y="155" width="290" height="8" as="geometry"/>
                </mxCell>
                <mxCell id="vjGuZrix1k9wX8aD3EJZ-7" value="sub-collections" style="text;html=1;strokeColor=#B09500;fillColor=#e3c800;align=center;verticalAlign=middle;spacingLeft=4;spacingRight=4;overflow=hidden;rotatable=0;points=[[0,0.5],[1,0.5]];portConstraint=eastwest;fontColor=#000000;" vertex="1" parent="vjGuZrix1k9wX8aD3EJZ-1">
                    <mxGeometry y="163" width="290" height="20" as="geometry"/>
                </mxCell>
                <mxCell id="vjGuZrix1k9wX8aD3EJZ-8" value="companies" style="text;html=1;strokeColor=none;fillColor=none;align=left;verticalAlign=middle;spacingLeft=4;spacingRight=4;overflow=hidden;rotatable=0;points=[[0,0.5],[1,0.5]];portConstraint=eastwest;" vertex="1" parent="vjGuZrix1k9wX8aD3EJZ-1">
                    <mxGeometry y="183" width="290" height="20" as="geometry"/>
                </mxCell>
                <mxCell id="vjGuZrix1k9wX8aD3EJZ-40" value="" style="edgeStyle=none;html=1;fillColor=#e51400;strokeColor=#B20000;strokeWidth=2;" edge="1" parent="1" source="vjGuZrix1k9wX8aD3EJZ-13" target="vjGuZrix1k9wX8aD3EJZ-30">
                    <mxGeometry relative="1" as="geometry"/>
                </mxCell>
                <mxCell id="vjGuZrix1k9wX8aD3EJZ-51" value="" style="edgeStyle=none;html=1;fillColor=#e51400;strokeColor=#B20000;strokeWidth=2;" edge="1" parent="1" source="vjGuZrix1k9wX8aD3EJZ-13" target="vjGuZrix1k9wX8aD3EJZ-41">
                    <mxGeometry relative="1" as="geometry"/>
                </mxCell>
                <mxCell id="vjGuZrix1k9wX8aD3EJZ-56" style="edgeStyle=none;html=1;fillColor=#e51400;strokeColor=#B20000;strokeWidth=2;" edge="1" parent="1" source="vjGuZrix1k9wX8aD3EJZ-13" target="vjGuZrix1k9wX8aD3EJZ-52">
                    <mxGeometry relative="1" as="geometry"/>
                </mxCell>
                <mxCell id="vjGuZrix1k9wX8aD3EJZ-13" value="collection: companies&lt;br&gt;doc : user_email + company_id" style="swimlane;fontStyle=0;align=center;verticalAlign=top;childLayout=stackLayout;horizontal=1;startSize=55;horizontalStack=0;resizeParent=1;resizeParentMax=0;resizeLast=0;collapsible=0;marginBottom=0;html=1;fillColor=#d80073;fontColor=#ffffff;strokeColor=#A50040;" vertex="1" parent="1">
                    <mxGeometry x="490" y="450" width="310" height="223" as="geometry"/>
                </mxCell>
                <mxCell id="vjGuZrix1k9wX8aD3EJZ-14" value="attributes" style="text;html=1;strokeColor=#B09500;fillColor=#e3c800;align=center;verticalAlign=middle;spacingLeft=4;spacingRight=4;overflow=hidden;rotatable=0;points=[[0,0.5],[1,0.5]];portConstraint=eastwest;fontColor=#000000;" vertex="1" parent="vjGuZrix1k9wX8aD3EJZ-13">
                    <mxGeometry y="55" width="310" height="20" as="geometry"/>
                </mxCell>
                <mxCell id="vjGuZrix1k9wX8aD3EJZ-21" value="&amp;nbsp; company_id: int" style="shape=partialRectangle;html=1;top=1;align=left;dashed=1;" vertex="1" parent="vjGuZrix1k9wX8aD3EJZ-13">
                    <mxGeometry y="75" width="310" height="20" as="geometry"/>
                </mxCell>
                <mxCell id="vjGuZrix1k9wX8aD3EJZ-24" value="&amp;nbsp; company_name: string" style="shape=partialRectangle;html=1;top=1;align=left;dashed=1;" vertex="1" parent="vjGuZrix1k9wX8aD3EJZ-13">
                    <mxGeometry y="95" width="310" height="20" as="geometry"/>
                </mxCell>
                <mxCell id="vjGuZrix1k9wX8aD3EJZ-25" value="&amp;nbsp; initial_date : timestamp" style="shape=partialRectangle;html=1;top=1;align=left;dashed=1;" vertex="1" parent="vjGuZrix1k9wX8aD3EJZ-13">
                    <mxGeometry y="115" width="310" height="20" as="geometry"/>
                </mxCell>
                <mxCell id="vjGuZrix1k9wX8aD3EJZ-18" value="" style="line;strokeWidth=1;fillColor=none;align=left;verticalAlign=middle;spacingTop=-1;spacingLeft=3;spacingRight=3;rotatable=0;labelPosition=right;points=[];portConstraint=eastwest;" vertex="1" parent="vjGuZrix1k9wX8aD3EJZ-13">
                    <mxGeometry y="135" width="310" height="8" as="geometry"/>
                </mxCell>
                <mxCell id="vjGuZrix1k9wX8aD3EJZ-19" value="sub-collections" style="text;html=1;strokeColor=#B09500;fillColor=#e3c800;align=center;verticalAlign=middle;spacingLeft=4;spacingRight=4;overflow=hidden;rotatable=0;points=[[0,0.5],[1,0.5]];portConstraint=eastwest;fontColor=#000000;" vertex="1" parent="vjGuZrix1k9wX8aD3EJZ-13">
                    <mxGeometry y="143" width="310" height="20" as="geometry"/>
                </mxCell>
                <mxCell id="vjGuZrix1k9wX8aD3EJZ-22" value="&amp;nbsp; accounts" style="shape=partialRectangle;html=1;top=1;align=left;dashed=1;" vertex="1" parent="vjGuZrix1k9wX8aD3EJZ-13">
                    <mxGeometry y="163" width="310" height="20" as="geometry"/>
                </mxCell>
                <mxCell id="vjGuZrix1k9wX8aD3EJZ-28" value="&amp;nbsp; transactions" style="shape=partialRectangle;html=1;top=1;align=left;dashed=1;" vertex="1" parent="vjGuZrix1k9wX8aD3EJZ-13">
                    <mxGeometry y="183" width="310" height="20" as="geometry"/>
                </mxCell>
                <mxCell id="vjGuZrix1k9wX8aD3EJZ-29" value="&amp;nbsp; trials" style="shape=partialRectangle;html=1;top=1;align=left;dashed=1;" vertex="1" parent="vjGuZrix1k9wX8aD3EJZ-13">
                    <mxGeometry y="203" width="310" height="20" as="geometry"/>
                </mxCell>
                <mxCell id="vjGuZrix1k9wX8aD3EJZ-30" value="collection: accounts&lt;br&gt;doc: user_email + company_id + account id" style="swimlane;fontStyle=0;align=center;verticalAlign=top;childLayout=stackLayout;horizontal=1;startSize=55;horizontalStack=0;resizeParent=1;resizeParentMax=0;resizeLast=0;collapsible=0;marginBottom=0;html=1;fillColor=#6a00ff;fontColor=#ffffff;strokeColor=#3700CC;" vertex="1" parent="1">
                    <mxGeometry x="60" y="590" width="310" height="303" as="geometry"/>
                </mxCell>
                <mxCell id="vjGuZrix1k9wX8aD3EJZ-31" value="attributes" style="text;html=1;strokeColor=#C73500;fillColor=#fa6800;align=center;verticalAlign=middle;spacingLeft=4;spacingRight=4;overflow=hidden;rotatable=0;points=[[0,0.5],[1,0.5]];portConstraint=eastwest;fontColor=#000000;" vertex="1" parent="vjGuZrix1k9wX8aD3EJZ-30">
                    <mxGeometry y="55" width="310" height="20" as="geometry"/>
                </mxCell>
                <mxCell id="vjGuZrix1k9wX8aD3EJZ-57" value="&amp;nbsp; account_id : int" style="shape=partialRectangle;html=1;top=1;align=left;dashed=1;" vertex="1" parent="vjGuZrix1k9wX8aD3EJZ-30">
                    <mxGeometry y="75" width="310" height="20" as="geometry"/>
                </mxCell>
                <mxCell id="vjGuZrix1k9wX8aD3EJZ-59" value="&amp;nbsp; account_parent : int" style="shape=partialRectangle;html=1;top=1;align=left;dashed=1;" vertex="1" parent="vjGuZrix1k9wX8aD3EJZ-30">
                    <mxGeometry y="95" width="310" height="20" as="geometry"/>
                </mxCell>
                <mxCell id="vjGuZrix1k9wX8aD3EJZ-62" value="&amp;nbsp; account_type : string" style="shape=partialRectangle;html=1;top=1;align=left;dashed=1;" vertex="1" parent="vjGuZrix1k9wX8aD3EJZ-30">
                    <mxGeometry y="115" width="310" height="20" as="geometry"/>
                </mxCell>
                <mxCell id="vjGuZrix1k9wX8aD3EJZ-60" value="&amp;nbsp; eng_name : string" style="shape=partialRectangle;html=1;top=1;align=left;dashed=1;" vertex="1" parent="vjGuZrix1k9wX8aD3EJZ-30">
                    <mxGeometry y="135" width="310" height="20" as="geometry"/>
                </mxCell>
                <mxCell id="vjGuZrix1k9wX8aD3EJZ-61" value="&amp;nbsp; def_name : string" style="shape=partialRectangle;html=1;top=1;align=left;dashed=1;" vertex="1" parent="vjGuZrix1k9wX8aD3EJZ-30">
                    <mxGeometry y="155" width="310" height="20" as="geometry"/>
                </mxCell>
                <mxCell id="vjGuZrix1k9wX8aD3EJZ-63" value="&amp;nbsp; tier : int" style="shape=partialRectangle;html=1;top=1;align=left;dashed=1;" vertex="1" parent="vjGuZrix1k9wX8aD3EJZ-30">
                    <mxGeometry y="175" width="310" height="20" as="geometry"/>
                </mxCell>
                <mxCell id="vjGuZrix1k9wX8aD3EJZ-64" value="&amp;nbsp; tags : [ ]&amp;nbsp;" style="shape=partialRectangle;html=1;top=1;align=left;dashed=1;" vertex="1" parent="vjGuZrix1k9wX8aD3EJZ-30">
                    <mxGeometry y="195" width="310" height="20" as="geometry"/>
                </mxCell>
                <mxCell id="vjGuZrix1k9wX8aD3EJZ-65" value="&amp;nbsp; last_update : timestamp" style="shape=partialRectangle;html=1;top=1;align=left;dashed=1;" vertex="1" parent="vjGuZrix1k9wX8aD3EJZ-30">
                    <mxGeometry y="215" width="310" height="20" as="geometry"/>
                </mxCell>
                <mxCell id="vjGuZrix1k9wX8aD3EJZ-66" value="&amp;nbsp; Currency : string" style="shape=partialRectangle;html=1;top=1;align=left;dashed=1;" vertex="1" parent="vjGuZrix1k9wX8aD3EJZ-30">
                    <mxGeometry y="235" width="310" height="20" as="geometry"/>
                </mxCell>
                <mxCell id="vjGuZrix1k9wX8aD3EJZ-67" value="&amp;nbsp; Balance : number" style="shape=partialRectangle;html=1;top=1;align=left;dashed=1;" vertex="1" parent="vjGuZrix1k9wX8aD3EJZ-30">
                    <mxGeometry y="255" width="310" height="20" as="geometry"/>
                </mxCell>
                <mxCell id="vjGuZrix1k9wX8aD3EJZ-35" value="" style="line;strokeWidth=1;fillColor=none;align=left;verticalAlign=middle;spacingTop=-1;spacingLeft=3;spacingRight=3;rotatable=0;labelPosition=right;points=[];portConstraint=eastwest;" vertex="1" parent="vjGuZrix1k9wX8aD3EJZ-30">
                    <mxGeometry y="275" width="310" height="8" as="geometry"/>
                </mxCell>
                <mxCell id="vjGuZrix1k9wX8aD3EJZ-36" value="sub-collections" style="text;html=1;strokeColor=#C73500;fillColor=#fa6800;align=center;verticalAlign=middle;spacingLeft=4;spacingRight=4;overflow=hidden;rotatable=0;points=[[0,0.5],[1,0.5]];portConstraint=eastwest;fontColor=#000000;" vertex="1" parent="vjGuZrix1k9wX8aD3EJZ-30">
                    <mxGeometry y="283" width="310" height="20" as="geometry"/>
                </mxCell>
                <mxCell id="vjGuZrix1k9wX8aD3EJZ-41" value="collection: transactions&lt;br&gt;doc: transaction_id" style="swimlane;fontStyle=0;align=center;verticalAlign=top;childLayout=stackLayout;horizontal=1;startSize=55;horizontalStack=0;resizeParent=1;resizeParentMax=0;resizeLast=0;collapsible=0;marginBottom=0;html=1;fillColor=#6a00ff;fontColor=#ffffff;strokeColor=#3700CC;" vertex="1" parent="1">
                    <mxGeometry x="990" y="690" width="310" height="103" as="geometry"/>
                </mxCell>
                <mxCell id="vjGuZrix1k9wX8aD3EJZ-42" value="attributes" style="text;html=1;strokeColor=#C73500;fillColor=#fa6800;align=center;verticalAlign=middle;spacingLeft=4;spacingRight=4;overflow=hidden;rotatable=0;points=[[0,0.5],[1,0.5]];portConstraint=eastwest;fontColor=#000000;" vertex="1" parent="vjGuZrix1k9wX8aD3EJZ-41">
                    <mxGeometry y="55" width="310" height="20" as="geometry"/>
                </mxCell>
                <mxCell id="vjGuZrix1k9wX8aD3EJZ-46" value="" style="line;strokeWidth=1;fillColor=none;align=left;verticalAlign=middle;spacingTop=-1;spacingLeft=3;spacingRight=3;rotatable=0;labelPosition=right;points=[];portConstraint=eastwest;" vertex="1" parent="vjGuZrix1k9wX8aD3EJZ-41">
                    <mxGeometry y="75" width="310" height="8" as="geometry"/>
                </mxCell>
                <mxCell id="vjGuZrix1k9wX8aD3EJZ-47" value="sub-collections" style="text;html=1;strokeColor=#C73500;fillColor=#fa6800;align=center;verticalAlign=middle;spacingLeft=4;spacingRight=4;overflow=hidden;rotatable=0;points=[[0,0.5],[1,0.5]];portConstraint=eastwest;fontColor=#000000;" vertex="1" parent="vjGuZrix1k9wX8aD3EJZ-41">
                    <mxGeometry y="83" width="310" height="20" as="geometry"/>
                </mxCell>
                <mxCell id="vjGuZrix1k9wX8aD3EJZ-52" value="collection: trials&lt;br&gt;doc: date" style="swimlane;fontStyle=0;align=center;verticalAlign=top;childLayout=stackLayout;horizontal=1;startSize=55;horizontalStack=0;resizeParent=1;resizeParentMax=0;resizeLast=0;collapsible=0;marginBottom=0;html=1;fillColor=#6a00ff;fontColor=#ffffff;strokeColor=#3700CC;" vertex="1" parent="1">
                    <mxGeometry x="490" y="827" width="310" height="103" as="geometry"/>
                </mxCell>
                <mxCell id="vjGuZrix1k9wX8aD3EJZ-53" value="attributes" style="text;html=1;strokeColor=#C73500;fillColor=#fa6800;align=center;verticalAlign=middle;spacingLeft=4;spacingRight=4;overflow=hidden;rotatable=0;points=[[0,0.5],[1,0.5]];portConstraint=eastwest;fontColor=#000000;" vertex="1" parent="vjGuZrix1k9wX8aD3EJZ-52">
                    <mxGeometry y="55" width="310" height="20" as="geometry"/>
                </mxCell>
                <mxCell id="vjGuZrix1k9wX8aD3EJZ-54" value="" style="line;strokeWidth=1;fillColor=none;align=left;verticalAlign=middle;spacingTop=-1;spacingLeft=3;spacingRight=3;rotatable=0;labelPosition=right;points=[];portConstraint=eastwest;" vertex="1" parent="vjGuZrix1k9wX8aD3EJZ-52">
                    <mxGeometry y="75" width="310" height="8" as="geometry"/>
                </mxCell>
                <mxCell id="vjGuZrix1k9wX8aD3EJZ-55" value="sub-collections" style="text;html=1;strokeColor=#C73500;fillColor=#fa6800;align=center;verticalAlign=middle;spacingLeft=4;spacingRight=4;overflow=hidden;rotatable=0;points=[[0,0.5],[1,0.5]];portConstraint=eastwest;fontColor=#000000;" vertex="1" parent="vjGuZrix1k9wX8aD3EJZ-52">
                    <mxGeometry y="83" width="310" height="20" as="geometry"/>
                </mxCell>
            </root>
        </mxGraphModel>
    </diagram>
    <diagram id="w2UGb_RwOrQDCwzfykz4" name="Page-2">
        <mxGraphModel dx="1069" dy="1641" grid="1" gridSize="10" guides="1" tooltips="1" connect="1" arrows="1" fold="1" page="1" pageScale="1" pageWidth="1169" pageHeight="827" math="0" shadow="0">
            <root>
                <mxCell id="0"/>
                <mxCell id="1" parent="0"/>
                <mxCell id="cjFJLw8YMbEZgh8hjYRU-1" value="&lt;p style=&quot;margin:0px;margin-top:4px;text-align:center;text-decoration:underline;&quot;&gt;&lt;b&gt;Accounts&lt;/b&gt;&lt;/p&gt;&lt;hr&gt;&lt;div style=&quot;color: rgb(204, 204, 204); background-color: rgb(31, 31, 31); font-family: Consolas, &amp;quot;Courier New&amp;quot;, monospace; font-size: 14px; line-height: 19px;&quot;&gt;&lt;div&gt;{&lt;/div&gt;&lt;div&gt;&amp;nbsp; &amp;nbsp; &lt;span style=&quot;color: #9cdcfe;&quot;&gt;&quot;acc_id&quot;&lt;/span&gt; : &lt;span style=&quot;color: #b5cea8;&quot;&gt;0&lt;/span&gt;,&lt;/div&gt;&lt;div&gt;&amp;nbsp; &amp;nbsp; &lt;span style=&quot;color: #9cdcfe;&quot;&gt;&quot;parent_id&quot;&lt;/span&gt; : &lt;span style=&quot;color: #569cd6;&quot;&gt;false&lt;/span&gt;,&lt;/div&gt;&lt;div&gt;&amp;nbsp; &amp;nbsp;&amp;nbsp;&lt;span style=&quot;color: rgb(156, 220, 254);&quot;&gt;&quot;children&quot;&lt;/span&gt;&lt;span style=&quot;&quot;&gt; : &lt;/span&gt;&lt;span style=&quot;color: rgb(86, 156, 214);&quot;&gt;true&lt;/span&gt;&lt;span style=&quot;&quot;&gt;,&lt;/span&gt;&lt;/div&gt;&lt;div&gt;&amp;nbsp; &amp;nbsp; &lt;span style=&quot;color: #9cdcfe;&quot;&gt;&quot;tier&quot;&lt;/span&gt; : &lt;span style=&quot;color: #b5cea8;&quot;&gt;0&lt;/span&gt;,&lt;/div&gt;&lt;div&gt;&amp;nbsp; &amp;nbsp; &lt;span style=&quot;color: #9cdcfe;&quot;&gt;&quot;default_name&quot;&lt;/span&gt;: &lt;span style=&quot;color: #ce9178;&quot;&gt;&quot;Ledger&quot;&lt;/span&gt;,&lt;/div&gt;&lt;div&gt;&amp;nbsp; &amp;nbsp; &lt;span style=&quot;color: #9cdcfe;&quot;&gt;&quot;tags&quot;&lt;/span&gt; : [],&lt;/div&gt;&lt;div&gt;&amp;nbsp; &amp;nbsp; &lt;span style=&quot;color: #9cdcfe;&quot;&gt;&quot;currency&quot;&lt;/span&gt; : &lt;span style=&quot;color: #ce9178;&quot;&gt;&quot;IDR&quot;&lt;/span&gt;,&lt;/div&gt;&lt;div&gt;&amp;nbsp; &amp;nbsp; &lt;span style=&quot;color: #9cdcfe;&quot;&gt;&quot;Balance&quot;&lt;/span&gt; : &lt;span style=&quot;color: #569cd6;&quot;&gt;false&lt;/span&gt;,&lt;/div&gt;&lt;div&gt;&amp;nbsp; &amp;nbsp; &lt;span style=&quot;color: #9cdcfe;&quot;&gt;&quot;last_update&quot;&lt;/span&gt;: &lt;span style=&quot;color: #ce9178;&quot;&gt;&quot;timedate&quot;&lt;/span&gt;&lt;/div&gt;&lt;div&gt;}&lt;/div&gt;&lt;/div&gt;" style="verticalAlign=top;align=left;overflow=fill;fontSize=12;fontFamily=Helvetica;html=1;" parent="1" vertex="1">
                    <mxGeometry x="810" y="-40" width="340" height="240" as="geometry"/>
                </mxCell>
                <mxCell id="cjFJLw8YMbEZgh8hjYRU-2" value="&lt;p style=&quot;margin:0px;margin-top:4px;text-align:center;text-decoration:underline;&quot;&gt;&lt;b&gt;Accounts&lt;/b&gt;&lt;/p&gt;&lt;hr&gt;&lt;div style=&quot;background-color: rgb(31, 31, 31); font-family: Consolas, &amp;quot;Courier New&amp;quot;, monospace; font-size: 14px; line-height: 19px;&quot;&gt;&lt;div style=&quot;color: rgb(204, 204, 204);&quot;&gt;{&lt;/div&gt;&lt;div style=&quot;&quot;&gt;&lt;font color=&quot;#cccccc&quot;&gt;&amp;nbsp; &amp;nbsp; &lt;/font&gt;&lt;span style=&quot;color: rgb(156, 220, 254);&quot;&gt;&quot;acc_id&quot;&lt;/span&gt;&lt;font color=&quot;#cccccc&quot;&gt; : &lt;/font&gt;&lt;font color=&quot;#b5cea8&quot;&gt;1&lt;/font&gt;&lt;font color=&quot;#cccccc&quot;&gt;,&lt;/font&gt;&lt;/div&gt;&lt;div style=&quot;color: rgb(204, 204, 204);&quot;&gt;&amp;nbsp; &amp;nbsp; &lt;span style=&quot;color: #9cdcfe;&quot;&gt;&quot;parent_id&quot;&lt;/span&gt; : &lt;span style=&quot;color: #569cd6;&quot;&gt;0&lt;/span&gt;,&lt;/div&gt;&lt;div style=&quot;color: rgb(204, 204, 204);&quot;&gt;&amp;nbsp; &amp;nbsp;&amp;nbsp;&lt;span style=&quot;color: rgb(156, 220, 254);&quot;&gt;&quot;children&quot;&lt;/span&gt;&lt;span style=&quot;&quot;&gt; : &lt;/span&gt;&lt;span style=&quot;color: rgb(86, 156, 214);&quot;&gt;true&lt;/span&gt;&lt;span style=&quot;&quot;&gt;,&lt;/span&gt;&lt;/div&gt;&lt;div style=&quot;&quot;&gt;&lt;span style=&quot;color: rgb(204, 204, 204);&quot;&gt;&amp;nbsp; &amp;nbsp; &lt;span style=&quot;color: #9cdcfe;&quot;&gt;&quot;tier&quot;&lt;/span&gt; : &lt;/span&gt;&lt;font color=&quot;#b5cea8&quot;&gt;1&lt;/font&gt;&lt;font color=&quot;#cccccc&quot;&gt;,&lt;/font&gt;&lt;/div&gt;&lt;div style=&quot;color: rgb(204, 204, 204);&quot;&gt;&amp;nbsp; &amp;nbsp; &lt;span style=&quot;color: #9cdcfe;&quot;&gt;&quot;default_name&quot;&lt;/span&gt;: &lt;span style=&quot;color: #ce9178;&quot;&gt;&quot;Asset&quot;&lt;/span&gt;,&lt;/div&gt;&lt;div style=&quot;color: rgb(204, 204, 204);&quot;&gt;&amp;nbsp; &amp;nbsp; &lt;span style=&quot;color: #9cdcfe;&quot;&gt;&quot;tags&quot;&lt;/span&gt; : [&quot;Asset&quot;],&lt;/div&gt;&lt;div style=&quot;color: rgb(204, 204, 204);&quot;&gt;&amp;nbsp; &amp;nbsp; &lt;span style=&quot;color: #9cdcfe;&quot;&gt;&quot;currency&quot;&lt;/span&gt; : &lt;span style=&quot;color: #ce9178;&quot;&gt;&quot;IDR&quot;&lt;/span&gt;,&lt;/div&gt;&lt;div style=&quot;color: rgb(204, 204, 204);&quot;&gt;&amp;nbsp; &amp;nbsp; &lt;span style=&quot;color: #9cdcfe;&quot;&gt;&quot;Balance&quot;&lt;/span&gt; : &lt;span style=&quot;color: #569cd6;&quot;&gt;0&lt;/span&gt;,&lt;/div&gt;&lt;div style=&quot;color: rgb(204, 204, 204);&quot;&gt;&amp;nbsp; &amp;nbsp; &lt;span style=&quot;color: #9cdcfe;&quot;&gt;&quot;last_update&quot;&lt;/span&gt;: &lt;span style=&quot;color: #ce9178;&quot;&gt;&quot;timedate&quot;&lt;/span&gt;&lt;/div&gt;&lt;div style=&quot;color: rgb(204, 204, 204);&quot;&gt;}&lt;/div&gt;&lt;/div&gt;" style="verticalAlign=top;align=left;overflow=fill;fontSize=12;fontFamily=Helvetica;html=1;" parent="1" vertex="1">
                    <mxGeometry x="40" y="230" width="340" height="240" as="geometry"/>
                </mxCell>
                <mxCell id="cjFJLw8YMbEZgh8hjYRU-3" value="&lt;p style=&quot;margin:0px;margin-top:4px;text-align:center;text-decoration:underline;&quot;&gt;&lt;b&gt;Accounts&lt;/b&gt;&lt;/p&gt;&lt;hr&gt;&lt;div style=&quot;background-color: rgb(31, 31, 31); font-family: Consolas, &amp;quot;Courier New&amp;quot;, monospace; font-size: 14px; line-height: 19px;&quot;&gt;&lt;div style=&quot;color: rgb(204, 204, 204);&quot;&gt;{&lt;/div&gt;&lt;div style=&quot;&quot;&gt;&lt;font color=&quot;#cccccc&quot;&gt;&amp;nbsp; &amp;nbsp; &lt;/font&gt;&lt;span style=&quot;color: rgb(156, 220, 254);&quot;&gt;&quot;acc_id&quot;&lt;/span&gt;&lt;font color=&quot;#cccccc&quot;&gt; : &lt;/font&gt;&lt;font color=&quot;#b5cea8&quot;&gt;2&lt;/font&gt;&lt;font color=&quot;#cccccc&quot;&gt;,&lt;/font&gt;&lt;/div&gt;&lt;div style=&quot;color: rgb(204, 204, 204);&quot;&gt;&amp;nbsp; &amp;nbsp; &lt;span style=&quot;color: #9cdcfe;&quot;&gt;&quot;parent_id&quot;&lt;/span&gt; : &lt;span style=&quot;color: #569cd6;&quot;&gt;0&lt;/span&gt;,&lt;/div&gt;&lt;div style=&quot;color: rgb(204, 204, 204);&quot;&gt;&amp;nbsp; &amp;nbsp;&amp;nbsp;&lt;span style=&quot;color: rgb(156, 220, 254);&quot;&gt;&quot;children&quot;&lt;/span&gt;&lt;span style=&quot;&quot;&gt; : &lt;/span&gt;&lt;span style=&quot;color: rgb(86, 156, 214);&quot;&gt;true&lt;/span&gt;&lt;span style=&quot;&quot;&gt;,&lt;/span&gt;&lt;/div&gt;&lt;div style=&quot;&quot;&gt;&lt;span style=&quot;color: rgb(204, 204, 204);&quot;&gt;&amp;nbsp; &amp;nbsp; &lt;span style=&quot;color: #9cdcfe;&quot;&gt;&quot;tier&quot;&lt;/span&gt; : &lt;/span&gt;&lt;font color=&quot;#b5cea8&quot;&gt;1&lt;/font&gt;&lt;font color=&quot;#cccccc&quot;&gt;,&lt;/font&gt;&lt;/div&gt;&lt;div style=&quot;color: rgb(204, 204, 204);&quot;&gt;&amp;nbsp; &amp;nbsp; &lt;span style=&quot;color: #9cdcfe;&quot;&gt;&quot;default_name&quot;&lt;/span&gt;: &lt;span style=&quot;color: #ce9178;&quot;&gt;&quot;Liability&quot;&lt;/span&gt;,&lt;/div&gt;&lt;div style=&quot;color: rgb(204, 204, 204);&quot;&gt;&amp;nbsp; &amp;nbsp; &lt;span style=&quot;color: #9cdcfe;&quot;&gt;&quot;tags&quot;&lt;/span&gt; : [&quot;Liability&quot;],&lt;/div&gt;&lt;div style=&quot;color: rgb(204, 204, 204);&quot;&gt;&amp;nbsp; &amp;nbsp; &lt;span style=&quot;color: #9cdcfe;&quot;&gt;&quot;currency&quot;&lt;/span&gt; : &lt;span style=&quot;color: #ce9178;&quot;&gt;&quot;IDR&quot;&lt;/span&gt;,&lt;/div&gt;&lt;div style=&quot;color: rgb(204, 204, 204);&quot;&gt;&amp;nbsp; &amp;nbsp; &lt;span style=&quot;color: #9cdcfe;&quot;&gt;&quot;Balance&quot;&lt;/span&gt; : &lt;span style=&quot;color: #569cd6;&quot;&gt;0&lt;/span&gt;,&lt;/div&gt;&lt;div style=&quot;color: rgb(204, 204, 204);&quot;&gt;&amp;nbsp; &amp;nbsp; &lt;span style=&quot;color: #9cdcfe;&quot;&gt;&quot;last_update&quot;&lt;/span&gt;: &lt;span style=&quot;color: #ce9178;&quot;&gt;&quot;timedate&quot;&lt;/span&gt;&lt;/div&gt;&lt;div style=&quot;color: rgb(204, 204, 204);&quot;&gt;}&lt;/div&gt;&lt;/div&gt;" style="verticalAlign=top;align=left;overflow=fill;fontSize=12;fontFamily=Helvetica;html=1;" parent="1" vertex="1">
                    <mxGeometry x="420" y="230" width="340" height="240" as="geometry"/>
                </mxCell>
                <mxCell id="cjFJLw8YMbEZgh8hjYRU-4" value="&lt;p style=&quot;margin:0px;margin-top:4px;text-align:center;text-decoration:underline;&quot;&gt;&lt;b&gt;Accounts&lt;/b&gt;&lt;/p&gt;&lt;hr&gt;&lt;div style=&quot;background-color: rgb(31, 31, 31); font-family: Consolas, &amp;quot;Courier New&amp;quot;, monospace; font-size: 14px; line-height: 19px;&quot;&gt;&lt;div style=&quot;color: rgb(204, 204, 204);&quot;&gt;{&lt;/div&gt;&lt;div style=&quot;&quot;&gt;&lt;font color=&quot;#cccccc&quot;&gt;&amp;nbsp; &amp;nbsp; &lt;/font&gt;&lt;span style=&quot;color: rgb(156, 220, 254);&quot;&gt;&quot;acc_id&quot;&lt;/span&gt;&lt;font color=&quot;#cccccc&quot;&gt; : &lt;/font&gt;&lt;font color=&quot;#b5cea8&quot;&gt;3&lt;/font&gt;&lt;font color=&quot;#cccccc&quot;&gt;,&lt;/font&gt;&lt;/div&gt;&lt;div style=&quot;color: rgb(204, 204, 204);&quot;&gt;&amp;nbsp; &amp;nbsp; &lt;span style=&quot;color: #9cdcfe;&quot;&gt;&quot;parent_id&quot;&lt;/span&gt; : &lt;span style=&quot;color: #569cd6;&quot;&gt;0&lt;/span&gt;,&lt;/div&gt;&lt;div style=&quot;color: rgb(204, 204, 204);&quot;&gt;&amp;nbsp; &amp;nbsp;&amp;nbsp;&lt;span style=&quot;color: rgb(156, 220, 254);&quot;&gt;&quot;children&quot;&lt;/span&gt;&lt;span style=&quot;&quot;&gt; : &lt;/span&gt;&lt;span style=&quot;color: rgb(86, 156, 214);&quot;&gt;true&lt;/span&gt;&lt;span style=&quot;&quot;&gt;,&lt;/span&gt;&lt;/div&gt;&lt;div style=&quot;&quot;&gt;&lt;span style=&quot;color: rgb(204, 204, 204);&quot;&gt;&amp;nbsp; &amp;nbsp; &lt;span style=&quot;color: #9cdcfe;&quot;&gt;&quot;tier&quot;&lt;/span&gt; : &lt;/span&gt;&lt;font color=&quot;#b5cea8&quot;&gt;1&lt;/font&gt;&lt;font color=&quot;#cccccc&quot;&gt;,&lt;/font&gt;&lt;/div&gt;&lt;div style=&quot;color: rgb(204, 204, 204);&quot;&gt;&amp;nbsp; &amp;nbsp; &lt;span style=&quot;color: #9cdcfe;&quot;&gt;&quot;default_name&quot;&lt;/span&gt;: &lt;span style=&quot;color: #ce9178;&quot;&gt;&quot;Equity&quot;&lt;/span&gt;,&lt;/div&gt;&lt;div style=&quot;color: rgb(204, 204, 204);&quot;&gt;&amp;nbsp; &amp;nbsp; &lt;span style=&quot;color: #9cdcfe;&quot;&gt;&quot;tags&quot;&lt;/span&gt; : [&quot;Equity&quot;],&lt;/div&gt;&lt;div style=&quot;color: rgb(204, 204, 204);&quot;&gt;&amp;nbsp; &amp;nbsp; &lt;span style=&quot;color: #9cdcfe;&quot;&gt;&quot;currency&quot;&lt;/span&gt; : &lt;span style=&quot;color: #ce9178;&quot;&gt;&quot;IDR&quot;&lt;/span&gt;,&lt;/div&gt;&lt;div style=&quot;color: rgb(204, 204, 204);&quot;&gt;&amp;nbsp; &amp;nbsp; &lt;span style=&quot;color: #9cdcfe;&quot;&gt;&quot;Balance&quot;&lt;/span&gt; : &lt;span style=&quot;color: #569cd6;&quot;&gt;0&lt;/span&gt;,&lt;/div&gt;&lt;div style=&quot;color: rgb(204, 204, 204);&quot;&gt;&amp;nbsp; &amp;nbsp; &lt;span style=&quot;color: #9cdcfe;&quot;&gt;&quot;last_update&quot;&lt;/span&gt;: &lt;span style=&quot;color: #ce9178;&quot;&gt;&quot;timedate&quot;&lt;/span&gt;&lt;/div&gt;&lt;div style=&quot;color: rgb(204, 204, 204);&quot;&gt;}&lt;/div&gt;&lt;/div&gt;" style="verticalAlign=top;align=left;overflow=fill;fontSize=12;fontFamily=Helvetica;html=1;" parent="1" vertex="1">
                    <mxGeometry x="810" y="230" width="340" height="240" as="geometry"/>
                </mxCell>
                <mxCell id="cjFJLw8YMbEZgh8hjYRU-5" value="&lt;p style=&quot;margin:0px;margin-top:4px;text-align:center;text-decoration:underline;&quot;&gt;&lt;b&gt;Accounts&lt;/b&gt;&lt;/p&gt;&lt;hr&gt;&lt;div style=&quot;background-color: rgb(31, 31, 31); font-family: Consolas, &amp;quot;Courier New&amp;quot;, monospace; font-size: 14px; line-height: 19px;&quot;&gt;&lt;div style=&quot;color: rgb(204, 204, 204);&quot;&gt;{&lt;/div&gt;&lt;div style=&quot;&quot;&gt;&lt;font color=&quot;#cccccc&quot;&gt;&amp;nbsp; &amp;nbsp; &lt;/font&gt;&lt;span style=&quot;color: rgb(156, 220, 254);&quot;&gt;&quot;acc_id&quot;&lt;/span&gt;&lt;font color=&quot;#cccccc&quot;&gt; : &lt;/font&gt;&lt;font color=&quot;#b5cea8&quot;&gt;4&lt;/font&gt;&lt;font color=&quot;#cccccc&quot;&gt;,&lt;/font&gt;&lt;/div&gt;&lt;div style=&quot;color: rgb(204, 204, 204);&quot;&gt;&amp;nbsp; &amp;nbsp; &lt;span style=&quot;color: #9cdcfe;&quot;&gt;&quot;parent_id&quot;&lt;/span&gt; : &lt;span style=&quot;color: #569cd6;&quot;&gt;0&lt;/span&gt;,&lt;/div&gt;&lt;div style=&quot;color: rgb(204, 204, 204);&quot;&gt;&amp;nbsp; &amp;nbsp;&amp;nbsp;&lt;span style=&quot;color: rgb(156, 220, 254);&quot;&gt;&quot;children&quot;&lt;/span&gt;&lt;span style=&quot;&quot;&gt; : &lt;/span&gt;&lt;span style=&quot;color: rgb(86, 156, 214);&quot;&gt;true&lt;/span&gt;&lt;span style=&quot;&quot;&gt;,&lt;/span&gt;&lt;/div&gt;&lt;div style=&quot;&quot;&gt;&lt;span style=&quot;color: rgb(204, 204, 204);&quot;&gt;&amp;nbsp; &amp;nbsp; &lt;span style=&quot;color: #9cdcfe;&quot;&gt;&quot;tier&quot;&lt;/span&gt; : &lt;/span&gt;&lt;font color=&quot;#b5cea8&quot;&gt;1&lt;/font&gt;&lt;font color=&quot;#cccccc&quot;&gt;,&lt;/font&gt;&lt;/div&gt;&lt;div style=&quot;color: rgb(204, 204, 204);&quot;&gt;&amp;nbsp; &amp;nbsp; &lt;span style=&quot;color: #9cdcfe;&quot;&gt;&quot;default_name&quot;&lt;/span&gt;: &lt;span style=&quot;color: #ce9178;&quot;&gt;&quot;Revenue&quot;&lt;/span&gt;,&lt;/div&gt;&lt;div style=&quot;color: rgb(204, 204, 204);&quot;&gt;&amp;nbsp; &amp;nbsp; &lt;span style=&quot;color: #9cdcfe;&quot;&gt;&quot;tags&quot;&lt;/span&gt; : [&quot;Revenue&quot;],&lt;/div&gt;&lt;div style=&quot;color: rgb(204, 204, 204);&quot;&gt;&amp;nbsp; &amp;nbsp; &lt;span style=&quot;color: #9cdcfe;&quot;&gt;&quot;currency&quot;&lt;/span&gt; : &lt;span style=&quot;color: #ce9178;&quot;&gt;&quot;IDR&quot;&lt;/span&gt;,&lt;/div&gt;&lt;div style=&quot;color: rgb(204, 204, 204);&quot;&gt;&amp;nbsp; &amp;nbsp; &lt;span style=&quot;color: #9cdcfe;&quot;&gt;&quot;Balance&quot;&lt;/span&gt; : &lt;span style=&quot;color: #569cd6;&quot;&gt;0&lt;/span&gt;,&lt;/div&gt;&lt;div style=&quot;color: rgb(204, 204, 204);&quot;&gt;&amp;nbsp; &amp;nbsp; &lt;span style=&quot;color: #9cdcfe;&quot;&gt;&quot;last_update&quot;&lt;/span&gt;: &lt;span style=&quot;color: #ce9178;&quot;&gt;&quot;timedate&quot;&lt;/span&gt;&lt;/div&gt;&lt;div style=&quot;color: rgb(204, 204, 204);&quot;&gt;}&lt;/div&gt;&lt;/div&gt;" style="verticalAlign=top;align=left;overflow=fill;fontSize=12;fontFamily=Helvetica;html=1;" parent="1" vertex="1">
                    <mxGeometry x="1200" y="230" width="340" height="240" as="geometry"/>
                </mxCell>
                <mxCell id="cjFJLw8YMbEZgh8hjYRU-6" value="&lt;p style=&quot;margin:0px;margin-top:4px;text-align:center;text-decoration:underline;&quot;&gt;&lt;b&gt;Accounts&lt;/b&gt;&lt;/p&gt;&lt;hr&gt;&lt;div style=&quot;background-color: rgb(31, 31, 31); font-family: Consolas, &amp;quot;Courier New&amp;quot;, monospace; font-size: 14px; line-height: 19px;&quot;&gt;&lt;div style=&quot;color: rgb(204, 204, 204);&quot;&gt;{&lt;/div&gt;&lt;div style=&quot;&quot;&gt;&lt;font color=&quot;#cccccc&quot;&gt;&amp;nbsp; &amp;nbsp; &lt;/font&gt;&lt;span style=&quot;color: rgb(156, 220, 254);&quot;&gt;&quot;acc_id&quot;&lt;/span&gt;&lt;font color=&quot;#cccccc&quot;&gt; : &lt;/font&gt;&lt;font color=&quot;#b5cea8&quot;&gt;5&lt;/font&gt;&lt;font color=&quot;#cccccc&quot;&gt;,&lt;/font&gt;&lt;/div&gt;&lt;div style=&quot;color: rgb(204, 204, 204);&quot;&gt;&amp;nbsp; &amp;nbsp; &lt;span style=&quot;color: #9cdcfe;&quot;&gt;&quot;parent_id&quot;&lt;/span&gt; : &lt;span style=&quot;color: #569cd6;&quot;&gt;0&lt;/span&gt;,&lt;/div&gt;&lt;div style=&quot;&quot;&gt;&lt;span style=&quot;color: rgb(204, 204, 204);&quot;&gt;&amp;nbsp; &amp;nbsp; &lt;span style=&quot;color: #9cdcfe;&quot;&gt;&quot;tier&quot;&lt;/span&gt; : &lt;/span&gt;&lt;font color=&quot;#b5cea8&quot;&gt;1&lt;/font&gt;&lt;font color=&quot;#cccccc&quot;&gt;,&lt;/font&gt;&lt;/div&gt;&lt;div style=&quot;color: rgb(204, 204, 204);&quot;&gt;&amp;nbsp; &amp;nbsp; &lt;span style=&quot;color: #9cdcfe;&quot;&gt;&quot;default_name&quot;&lt;/span&gt;: &lt;span style=&quot;color: #ce9178;&quot;&gt;&quot;Expense&quot;&lt;/span&gt;,&lt;/div&gt;&lt;div style=&quot;color: rgb(204, 204, 204);&quot;&gt;&amp;nbsp; &amp;nbsp; &lt;span style=&quot;color: #9cdcfe;&quot;&gt;&quot;tags&quot;&lt;/span&gt; : [&quot;Expense&quot;],&lt;/div&gt;&lt;div style=&quot;color: rgb(204, 204, 204);&quot;&gt;&amp;nbsp; &amp;nbsp; &lt;span style=&quot;color: #9cdcfe;&quot;&gt;&quot;currency&quot;&lt;/span&gt; : &lt;span style=&quot;color: #ce9178;&quot;&gt;&quot;IDR&quot;&lt;/span&gt;,&lt;/div&gt;&lt;div style=&quot;color: rgb(204, 204, 204);&quot;&gt;&amp;nbsp; &amp;nbsp; &lt;span style=&quot;color: #9cdcfe;&quot;&gt;&quot;Balance&quot;&lt;/span&gt; : &lt;span style=&quot;color: #569cd6;&quot;&gt;0&lt;/span&gt;,&lt;/div&gt;&lt;div style=&quot;color: rgb(204, 204, 204);&quot;&gt;&amp;nbsp; &amp;nbsp; &lt;span style=&quot;color: #9cdcfe;&quot;&gt;&quot;last_update&quot;&lt;/span&gt;: &lt;span style=&quot;color: #ce9178;&quot;&gt;&quot;timedate&quot;&lt;/span&gt;&lt;/div&gt;&lt;div style=&quot;color: rgb(204, 204, 204);&quot;&gt;}&lt;/div&gt;&lt;/div&gt;" style="verticalAlign=top;align=left;overflow=fill;fontSize=12;fontFamily=Helvetica;html=1;" parent="1" vertex="1">
                    <mxGeometry x="1600" y="230" width="340" height="240" as="geometry"/>
                </mxCell>
                <mxCell id="cjFJLw8YMbEZgh8hjYRU-7" value="&lt;p style=&quot;margin:0px;margin-top:4px;text-align:center;text-decoration:underline;&quot;&gt;&lt;b&gt;Accounts&lt;/b&gt;&lt;/p&gt;&lt;hr&gt;&lt;div style=&quot;background-color: rgb(31, 31, 31); font-family: Consolas, &amp;quot;Courier New&amp;quot;, monospace; font-size: 14px; line-height: 19px;&quot;&gt;&lt;div style=&quot;color: rgb(204, 204, 204);&quot;&gt;{&lt;/div&gt;&lt;div style=&quot;&quot;&gt;&lt;font color=&quot;#cccccc&quot;&gt;&amp;nbsp; &amp;nbsp; &lt;/font&gt;&lt;span style=&quot;color: rgb(156, 220, 254);&quot;&gt;&quot;acc_id&quot;&lt;/span&gt;&lt;font color=&quot;#cccccc&quot;&gt; : &lt;/font&gt;&lt;font color=&quot;#b5cea8&quot;&gt;11&lt;/font&gt;&lt;font color=&quot;#cccccc&quot;&gt;,&lt;/font&gt;&lt;/div&gt;&lt;div style=&quot;&quot;&gt;&lt;span style=&quot;color: rgb(204, 204, 204);&quot;&gt;&amp;nbsp; &amp;nbsp; &lt;span style=&quot;color: #9cdcfe;&quot;&gt;&quot;parent_id&quot;&lt;/span&gt; : &lt;/span&gt;&lt;font color=&quot;#569cd6&quot;&gt;1&lt;/font&gt;&lt;font color=&quot;#cccccc&quot;&gt;,&lt;/font&gt;&lt;/div&gt;&lt;div style=&quot;&quot;&gt;&lt;span style=&quot;color: rgb(204, 204, 204);&quot;&gt;&amp;nbsp; &amp;nbsp; &lt;span style=&quot;color: #9cdcfe;&quot;&gt;&quot;tier&quot;&lt;/span&gt; : &lt;/span&gt;&lt;font color=&quot;#b5cea8&quot;&gt;2&lt;/font&gt;&lt;font color=&quot;#cccccc&quot;&gt;,&lt;/font&gt;&lt;/div&gt;&lt;div style=&quot;color: rgb(204, 204, 204);&quot;&gt;&amp;nbsp; &amp;nbsp; &lt;span style=&quot;color: #9cdcfe;&quot;&gt;&quot;default_name&quot;&lt;/span&gt;: &lt;span style=&quot;color: #ce9178;&quot;&gt;&quot;Current Asset&quot;&lt;/span&gt;,&lt;/div&gt;&lt;div style=&quot;color: rgb(204, 204, 204);&quot;&gt;&amp;nbsp; &amp;nbsp; &lt;span style=&quot;color: #9cdcfe;&quot;&gt;&quot;tags&quot;&lt;/span&gt; : [&quot;Asset&quot;],&lt;/div&gt;&lt;div style=&quot;color: rgb(204, 204, 204);&quot;&gt;&amp;nbsp; &amp;nbsp; &lt;span style=&quot;color: #9cdcfe;&quot;&gt;&quot;currency&quot;&lt;/span&gt; : &lt;span style=&quot;color: #ce9178;&quot;&gt;&quot;IDR&quot;&lt;/span&gt;,&lt;/div&gt;&lt;div style=&quot;color: rgb(204, 204, 204);&quot;&gt;&amp;nbsp; &amp;nbsp; &lt;span style=&quot;color: #9cdcfe;&quot;&gt;&quot;Balance&quot;&lt;/span&gt; : &lt;span style=&quot;color: #569cd6;&quot;&gt;0&lt;/span&gt;,&lt;/div&gt;&lt;div style=&quot;color: rgb(204, 204, 204);&quot;&gt;&amp;nbsp; &amp;nbsp; &lt;span style=&quot;color: #9cdcfe;&quot;&gt;&quot;last_update&quot;&lt;/span&gt;: &lt;span style=&quot;color: #ce9178;&quot;&gt;&quot;timedate&quot;&lt;/span&gt;&lt;/div&gt;&lt;div style=&quot;color: rgb(204, 204, 204);&quot;&gt;}&lt;/div&gt;&lt;/div&gt;" style="verticalAlign=top;align=left;overflow=fill;fontSize=12;fontFamily=Helvetica;html=1;" parent="1" vertex="1">
                    <mxGeometry x="10" y="540" width="380" height="240" as="geometry"/>
                </mxCell>
                <mxCell id="cjFJLw8YMbEZgh8hjYRU-8" value="&lt;p style=&quot;margin:0px;margin-top:4px;text-align:center;text-decoration:underline;&quot;&gt;&lt;b&gt;Accounts&lt;/b&gt;&lt;/p&gt;&lt;hr&gt;&lt;div style=&quot;background-color: rgb(31, 31, 31); font-family: Consolas, &amp;quot;Courier New&amp;quot;, monospace; font-size: 14px; line-height: 19px;&quot;&gt;&lt;div style=&quot;color: rgb(204, 204, 204);&quot;&gt;{&lt;/div&gt;&lt;div style=&quot;&quot;&gt;&lt;font color=&quot;#cccccc&quot;&gt;&amp;nbsp; &amp;nbsp; &lt;/font&gt;&lt;span style=&quot;color: rgb(156, 220, 254);&quot;&gt;&quot;acc_id&quot;&lt;/span&gt;&lt;font color=&quot;#cccccc&quot;&gt; : &lt;/font&gt;&lt;font color=&quot;#b5cea8&quot;&gt;12&lt;/font&gt;&lt;font color=&quot;#cccccc&quot;&gt;,&lt;/font&gt;&lt;/div&gt;&lt;div style=&quot;&quot;&gt;&lt;span style=&quot;color: rgb(204, 204, 204);&quot;&gt;&amp;nbsp; &amp;nbsp; &lt;span style=&quot;color: #9cdcfe;&quot;&gt;&quot;parent_id&quot;&lt;/span&gt; : &lt;/span&gt;&lt;font color=&quot;#569cd6&quot;&gt;1&lt;/font&gt;&lt;font color=&quot;#cccccc&quot;&gt;,&lt;/font&gt;&lt;/div&gt;&lt;div style=&quot;&quot;&gt;&lt;span style=&quot;color: rgb(204, 204, 204);&quot;&gt;&amp;nbsp; &amp;nbsp; &lt;span style=&quot;color: #9cdcfe;&quot;&gt;&quot;tier&quot;&lt;/span&gt; : &lt;/span&gt;&lt;font color=&quot;#b5cea8&quot;&gt;2&lt;/font&gt;&lt;font color=&quot;#cccccc&quot;&gt;,&lt;/font&gt;&lt;/div&gt;&lt;div style=&quot;color: rgb(204, 204, 204);&quot;&gt;&amp;nbsp; &amp;nbsp; &lt;span style=&quot;color: #9cdcfe;&quot;&gt;&quot;default_name&quot;&lt;/span&gt;: &lt;span style=&quot;color: #ce9178;&quot;&gt;&quot;Fixed Asset&quot;&lt;/span&gt;,&lt;/div&gt;&lt;div style=&quot;color: rgb(204, 204, 204);&quot;&gt;&amp;nbsp; &amp;nbsp; &lt;span style=&quot;color: #9cdcfe;&quot;&gt;&quot;tags&quot;&lt;/span&gt; : [&quot;Asset&quot;],&lt;/div&gt;&lt;div style=&quot;color: rgb(204, 204, 204);&quot;&gt;&amp;nbsp; &amp;nbsp; &lt;span style=&quot;color: #9cdcfe;&quot;&gt;&quot;currency&quot;&lt;/span&gt; : &lt;span style=&quot;color: #ce9178;&quot;&gt;&quot;IDR&quot;&lt;/span&gt;,&lt;/div&gt;&lt;div style=&quot;color: rgb(204, 204, 204);&quot;&gt;&amp;nbsp; &amp;nbsp; &lt;span style=&quot;color: #9cdcfe;&quot;&gt;&quot;Balance&quot;&lt;/span&gt; : &lt;span style=&quot;color: #569cd6;&quot;&gt;0&lt;/span&gt;,&lt;/div&gt;&lt;div style=&quot;color: rgb(204, 204, 204);&quot;&gt;&amp;nbsp; &amp;nbsp; &lt;span style=&quot;color: #9cdcfe;&quot;&gt;&quot;last_update&quot;&lt;/span&gt;: &lt;span style=&quot;color: #ce9178;&quot;&gt;&quot;timedate&quot;&lt;/span&gt;&lt;/div&gt;&lt;div style=&quot;color: rgb(204, 204, 204);&quot;&gt;}&lt;/div&gt;&lt;/div&gt;" style="verticalAlign=top;align=left;overflow=fill;fontSize=12;fontFamily=Helvetica;html=1;" parent="1" vertex="1">
                    <mxGeometry x="10" y="827" width="380" height="240" as="geometry"/>
                </mxCell>
            </root>
        </mxGraphModel>
    </diagram>
    <diagram id="heYhSuKs0WklKmJiqEw-" name="Page-3">
        <mxGraphModel dx="2238" dy="814" grid="1" gridSize="10" guides="1" tooltips="1" connect="1" arrows="1" fold="1" page="1" pageScale="1" pageWidth="1169" pageHeight="827" math="0" shadow="0">
            <root>
                <mxCell id="0"/>
                <mxCell id="1" parent="0"/>
                <mxCell id="jf70Kcqvtlar9FnrM-hf-1" value="ledger" style="rounded=1;whiteSpace=wrap;html=1;" parent="1" vertex="1">
                    <mxGeometry x="480" y="40" width="120" height="60" as="geometry"/>
                </mxCell>
                <mxCell id="jf70Kcqvtlar9FnrM-hf-2" value="Asset" style="rounded=1;whiteSpace=wrap;html=1;" parent="1" vertex="1">
                    <mxGeometry x="-100" y="250" width="120" height="60" as="geometry"/>
                </mxCell>
                <mxCell id="jf70Kcqvtlar9FnrM-hf-5" style="edgeStyle=none;html=1;entryX=0.25;entryY=1;entryDx=0;entryDy=0;" parent="1" source="jf70Kcqvtlar9FnrM-hf-3" target="jf70Kcqvtlar9FnrM-hf-2" edge="1">
                    <mxGeometry relative="1" as="geometry"/>
                </mxCell>
                <mxCell id="jf70Kcqvtlar9FnrM-hf-3" value="current asset" style="rounded=1;whiteSpace=wrap;html=1;" parent="1" vertex="1">
                    <mxGeometry x="-400" y="354" width="120" height="60" as="geometry"/>
                </mxCell>
                <mxCell id="jf70Kcqvtlar9FnrM-hf-6" style="edgeStyle=none;html=1;entryX=0.75;entryY=1;entryDx=0;entryDy=0;" parent="1" source="jf70Kcqvtlar9FnrM-hf-4" target="jf70Kcqvtlar9FnrM-hf-2" edge="1">
                    <mxGeometry relative="1" as="geometry"/>
                </mxCell>
                <mxCell id="jf70Kcqvtlar9FnrM-hf-4" value="fixed asset" style="rounded=1;whiteSpace=wrap;html=1;" parent="1" vertex="1">
                    <mxGeometry x="270" y="354" width="120" height="60" as="geometry"/>
                </mxCell>
                <mxCell id="jf70Kcqvtlar9FnrM-hf-10" style="edgeStyle=none;html=1;entryX=0.25;entryY=1;entryDx=0;entryDy=0;" parent="1" source="jf70Kcqvtlar9FnrM-hf-7" target="jf70Kcqvtlar9FnrM-hf-3" edge="1">
                    <mxGeometry relative="1" as="geometry"/>
                </mxCell>
                <mxCell id="jf70Kcqvtlar9FnrM-hf-7" value="Cash &amp;amp; Equivalent" style="rounded=1;whiteSpace=wrap;html=1;" parent="1" vertex="1">
                    <mxGeometry x="-580" y="500" width="120" height="60" as="geometry"/>
                </mxCell>
                <mxCell id="jf70Kcqvtlar9FnrM-hf-11" style="edgeStyle=none;html=1;entryX=0.5;entryY=1;entryDx=0;entryDy=0;" parent="1" source="jf70Kcqvtlar9FnrM-hf-8" target="jf70Kcqvtlar9FnrM-hf-3" edge="1">
                    <mxGeometry relative="1" as="geometry"/>
                </mxCell>
                <mxCell id="jf70Kcqvtlar9FnrM-hf-8" value="Account Receivable" style="rounded=1;whiteSpace=wrap;html=1;" parent="1" vertex="1">
                    <mxGeometry x="-400" y="500" width="120" height="60" as="geometry"/>
                </mxCell>
                <mxCell id="jf70Kcqvtlar9FnrM-hf-12" style="edgeStyle=none;html=1;entryX=0.75;entryY=1;entryDx=0;entryDy=0;" parent="1" source="jf70Kcqvtlar9FnrM-hf-9" target="jf70Kcqvtlar9FnrM-hf-3" edge="1">
                    <mxGeometry relative="1" as="geometry"/>
                </mxCell>
                <mxCell id="jf70Kcqvtlar9FnrM-hf-9" value="Inventory" style="rounded=1;whiteSpace=wrap;html=1;" parent="1" vertex="1">
                    <mxGeometry x="-220" y="500" width="120" height="60" as="geometry"/>
                </mxCell>
                <mxCell id="jf70Kcqvtlar9FnrM-hf-17" style="edgeStyle=none;html=1;entryX=0;entryY=1;entryDx=0;entryDy=0;" parent="1" source="jf70Kcqvtlar9FnrM-hf-13" target="jf70Kcqvtlar9FnrM-hf-4" edge="1">
                    <mxGeometry relative="1" as="geometry">
                        <mxPoint x="190" y="420" as="targetPoint"/>
                    </mxGeometry>
                </mxCell>
                <mxCell id="jf70Kcqvtlar9FnrM-hf-35" value="" style="edgeStyle=none;html=1;" parent="1" source="jf70Kcqvtlar9FnrM-hf-13" target="jf70Kcqvtlar9FnrM-hf-34" edge="1">
                    <mxGeometry relative="1" as="geometry"/>
                </mxCell>
                <mxCell id="jf70Kcqvtlar9FnrM-hf-13" value="Prepaid Asset" style="rounded=1;whiteSpace=wrap;html=1;" parent="1" vertex="1">
                    <mxGeometry x="-40" y="500" width="120" height="60" as="geometry"/>
                </mxCell>
                <mxCell id="jf70Kcqvtlar9FnrM-hf-18" style="edgeStyle=none;html=1;entryX=0.25;entryY=1;entryDx=0;entryDy=0;" parent="1" source="jf70Kcqvtlar9FnrM-hf-14" target="jf70Kcqvtlar9FnrM-hf-4" edge="1">
                    <mxGeometry relative="1" as="geometry"/>
                </mxCell>
                <mxCell id="jf70Kcqvtlar9FnrM-hf-14" value="Building" style="rounded=1;whiteSpace=wrap;html=1;" parent="1" vertex="1">
                    <mxGeometry x="120" y="500" width="120" height="60" as="geometry"/>
                </mxCell>
                <mxCell id="jf70Kcqvtlar9FnrM-hf-19" style="edgeStyle=none;html=1;entryX=0.75;entryY=1;entryDx=0;entryDy=0;" parent="1" source="jf70Kcqvtlar9FnrM-hf-15" target="jf70Kcqvtlar9FnrM-hf-4" edge="1">
                    <mxGeometry relative="1" as="geometry"/>
                </mxCell>
                <mxCell id="jf70Kcqvtlar9FnrM-hf-15" value="Equipment" style="rounded=1;whiteSpace=wrap;html=1;" parent="1" vertex="1">
                    <mxGeometry x="430" y="500" width="120" height="60" as="geometry"/>
                </mxCell>
                <mxCell id="jf70Kcqvtlar9FnrM-hf-20" style="edgeStyle=none;html=1;entryX=1;entryY=1;entryDx=0;entryDy=0;" parent="1" source="jf70Kcqvtlar9FnrM-hf-16" target="jf70Kcqvtlar9FnrM-hf-4" edge="1">
                    <mxGeometry relative="1" as="geometry"/>
                </mxCell>
                <mxCell id="jf70Kcqvtlar9FnrM-hf-16" value="Notes Receivable" style="rounded=1;whiteSpace=wrap;html=1;" parent="1" vertex="1">
                    <mxGeometry x="600" y="500" width="120" height="60" as="geometry"/>
                </mxCell>
                <mxCell id="jf70Kcqvtlar9FnrM-hf-22" style="edgeStyle=none;html=1;" parent="1" source="jf70Kcqvtlar9FnrM-hf-21" target="jf70Kcqvtlar9FnrM-hf-4" edge="1">
                    <mxGeometry relative="1" as="geometry"/>
                </mxCell>
                <mxCell id="jf70Kcqvtlar9FnrM-hf-21" value="land" style="rounded=1;whiteSpace=wrap;html=1;" parent="1" vertex="1">
                    <mxGeometry x="270" y="500" width="120" height="60" as="geometry"/>
                </mxCell>
                <mxCell id="jf70Kcqvtlar9FnrM-hf-24" value="Liability" style="rounded=1;whiteSpace=wrap;html=1;" parent="1" vertex="1">
                    <mxGeometry x="1634" y="120" width="120" height="60" as="geometry"/>
                </mxCell>
                <mxCell id="VtX1L7ukf_RsPNeZBsFi-3" style="edgeStyle=none;html=1;entryX=0.25;entryY=1;entryDx=0;entryDy=0;" parent="1" source="jf70Kcqvtlar9FnrM-hf-25" target="jf70Kcqvtlar9FnrM-hf-24" edge="1">
                    <mxGeometry relative="1" as="geometry"/>
                </mxCell>
                <mxCell id="jf70Kcqvtlar9FnrM-hf-25" value="Current Liability" style="rounded=1;whiteSpace=wrap;html=1;" parent="1" vertex="1">
                    <mxGeometry x="1370" y="470" width="120" height="60" as="geometry"/>
                </mxCell>
                <mxCell id="VtX1L7ukf_RsPNeZBsFi-4" style="edgeStyle=none;html=1;entryX=0.75;entryY=1;entryDx=0;entryDy=0;" parent="1" source="jf70Kcqvtlar9FnrM-hf-26" target="jf70Kcqvtlar9FnrM-hf-24" edge="1">
                    <mxGeometry relative="1" as="geometry">
                        <mxPoint x="1630" y="150" as="targetPoint"/>
                    </mxGeometry>
                </mxCell>
                <mxCell id="jf70Kcqvtlar9FnrM-hf-26" value="Long Term Liability" style="rounded=1;whiteSpace=wrap;html=1;" parent="1" vertex="1">
                    <mxGeometry x="2060" y="460" width="120" height="60" as="geometry"/>
                </mxCell>
                <mxCell id="jf70Kcqvtlar9FnrM-hf-28" style="edgeStyle=none;html=1;entryX=0.5;entryY=1;entryDx=0;entryDy=0;" parent="1" source="jf70Kcqvtlar9FnrM-hf-27" target="jf70Kcqvtlar9FnrM-hf-15" edge="1">
                    <mxGeometry relative="1" as="geometry"/>
                </mxCell>
                <mxCell id="jf70Kcqvtlar9FnrM-hf-29" style="edgeStyle=none;html=1;entryX=0.5;entryY=1;entryDx=0;entryDy=0;" parent="1" source="jf70Kcqvtlar9FnrM-hf-27" target="jf70Kcqvtlar9FnrM-hf-14" edge="1">
                    <mxGeometry relative="1" as="geometry"/>
                </mxCell>
                <mxCell id="jf70Kcqvtlar9FnrM-hf-27" value="less: accumulated depreciation" style="rounded=1;whiteSpace=wrap;html=1;" parent="1" vertex="1">
                    <mxGeometry x="280" y="610" width="120" height="60" as="geometry"/>
                </mxCell>
                <mxCell id="jf70Kcqvtlar9FnrM-hf-30" value="&lt;span style=&quot;color: rgb(209, 213, 219); font-family: Söhne, ui-sans-serif, system-ui, -apple-system, &amp;quot;Segoe UI&amp;quot;, Roboto, Ubuntu, Cantarell, &amp;quot;Noto Sans&amp;quot;, sans-serif, &amp;quot;Helvetica Neue&amp;quot;, Arial, &amp;quot;Apple Color Emoji&amp;quot;, &amp;quot;Segoe UI Emoji&amp;quot;, &amp;quot;Segoe UI Symbol&amp;quot;, &amp;quot;Noto Color Emoji&amp;quot;; font-size: 16px; text-align: start; background-color: rgb(68, 70, 84);&quot;&gt;In accounting, accumulated depreciation is not considered an asset. Instead, it is a contra-asset account that is used to reduce the value of an asset on the balance sheet.&lt;/span&gt;" style="text;html=1;align=center;verticalAlign=middle;resizable=0;points=[];autosize=1;strokeColor=none;fillColor=none;" parent="1" vertex="1">
                    <mxGeometry x="-220" y="760" width="1210" height="30" as="geometry"/>
                </mxCell>
                <mxCell id="VtX1L7ukf_RsPNeZBsFi-1" style="edgeStyle=none;html=1;entryX=0.25;entryY=1;entryDx=0;entryDy=0;" parent="1" source="jf70Kcqvtlar9FnrM-hf-32" target="jf70Kcqvtlar9FnrM-hf-25" edge="1">
                    <mxGeometry relative="1" as="geometry"/>
                </mxCell>
                <mxCell id="jf70Kcqvtlar9FnrM-hf-32" value="Account Payable" style="rounded=1;whiteSpace=wrap;html=1;" parent="1" vertex="1">
                    <mxGeometry x="1210" y="630" width="120" height="60" as="geometry"/>
                </mxCell>
                <mxCell id="VtX1L7ukf_RsPNeZBsFi-2" style="edgeStyle=none;html=1;entryX=0.75;entryY=1;entryDx=0;entryDy=0;" parent="1" source="jf70Kcqvtlar9FnrM-hf-33" target="jf70Kcqvtlar9FnrM-hf-25" edge="1">
                    <mxGeometry relative="1" as="geometry"/>
                </mxCell>
                <mxCell id="jf70Kcqvtlar9FnrM-hf-33" value="Unearned Revenue" style="rounded=1;whiteSpace=wrap;html=1;" parent="1" vertex="1">
                    <mxGeometry x="1510" y="610" width="120" height="60" as="geometry"/>
                </mxCell>
                <mxCell id="jf70Kcqvtlar9FnrM-hf-34" value="This account is still unclear should be current or fixed assets?" style="ellipse;whiteSpace=wrap;html=1;rounded=1;" parent="1" vertex="1">
                    <mxGeometry x="-130" y="630" width="300" height="80" as="geometry"/>
                </mxCell>
                <mxCell id="jf70Kcqvtlar9FnrM-hf-37" style="edgeStyle=none;html=1;" parent="1" source="jf70Kcqvtlar9FnrM-hf-36" target="jf70Kcqvtlar9FnrM-hf-3" edge="1">
                    <mxGeometry relative="1" as="geometry"/>
                </mxCell>
                <mxCell id="jf70Kcqvtlar9FnrM-hf-36" value="Prepaid Expense" style="rounded=1;whiteSpace=wrap;html=1;" parent="1" vertex="1">
                    <mxGeometry x="-780" y="500" width="120" height="60" as="geometry"/>
                </mxCell>
                <mxCell id="VtX1L7ukf_RsPNeZBsFi-6" style="edgeStyle=none;html=1;entryX=0.25;entryY=1;entryDx=0;entryDy=0;" parent="1" source="VtX1L7ukf_RsPNeZBsFi-5" target="jf70Kcqvtlar9FnrM-hf-26" edge="1">
                    <mxGeometry relative="1" as="geometry"/>
                </mxCell>
                <mxCell id="VtX1L7ukf_RsPNeZBsFi-5" value="Long term debt" style="rounded=1;whiteSpace=wrap;html=1;" parent="1" vertex="1">
                    <mxGeometry x="1820" y="620" width="120" height="60" as="geometry"/>
                </mxCell>
                <mxCell id="VtX1L7ukf_RsPNeZBsFi-8" style="edgeStyle=none;html=1;entryX=0.5;entryY=1;entryDx=0;entryDy=0;" parent="1" source="VtX1L7ukf_RsPNeZBsFi-7" target="jf70Kcqvtlar9FnrM-hf-26" edge="1">
                    <mxGeometry relative="1" as="geometry"/>
                </mxCell>
                <mxCell id="VtX1L7ukf_RsPNeZBsFi-7" value="Deposit" style="rounded=1;whiteSpace=wrap;html=1;" parent="1" vertex="1">
                    <mxGeometry x="2060" y="630" width="120" height="60" as="geometry"/>
                </mxCell>
                <mxCell id="VtX1L7ukf_RsPNeZBsFi-9" value="Equity" style="rounded=1;whiteSpace=wrap;html=1;" parent="1" vertex="1">
                    <mxGeometry x="2700" y="130" width="120" height="60" as="geometry"/>
                </mxCell>
                <mxCell id="VtX1L7ukf_RsPNeZBsFi-12" style="edgeStyle=none;html=1;entryX=0.25;entryY=1;entryDx=0;entryDy=0;" parent="1" source="VtX1L7ukf_RsPNeZBsFi-10" target="VtX1L7ukf_RsPNeZBsFi-9" edge="1">
                    <mxGeometry relative="1" as="geometry"/>
                </mxCell>
                <mxCell id="VtX1L7ukf_RsPNeZBsFi-10" value="Shareholder Equity" style="rounded=1;whiteSpace=wrap;html=1;" parent="1" vertex="1">
                    <mxGeometry x="2450" y="330" width="120" height="60" as="geometry"/>
                </mxCell>
                <mxCell id="VtX1L7ukf_RsPNeZBsFi-13" style="edgeStyle=none;html=1;entryX=0.75;entryY=1;entryDx=0;entryDy=0;" parent="1" source="VtX1L7ukf_RsPNeZBsFi-11" target="VtX1L7ukf_RsPNeZBsFi-9" edge="1">
                    <mxGeometry relative="1" as="geometry"/>
                </mxCell>
                <mxCell id="VtX1L7ukf_RsPNeZBsFi-11" value="Retained Earnings" style="rounded=1;whiteSpace=wrap;html=1;" parent="1" vertex="1">
                    <mxGeometry x="2980" y="320" width="120" height="60" as="geometry"/>
                </mxCell>
                <mxCell id="j_KiAzoIWVUe4Zsn0NRp-9" style="edgeStyle=none;html=1;entryX=0.75;entryY=1;entryDx=0;entryDy=0;" parent="1" source="VtX1L7ukf_RsPNeZBsFi-14" target="VtX1L7ukf_RsPNeZBsFi-11" edge="1">
                    <mxGeometry relative="1" as="geometry"/>
                </mxCell>
                <mxCell id="VtX1L7ukf_RsPNeZBsFi-14" value="Dividen/Prive" style="rounded=1;whiteSpace=wrap;html=1;" parent="1" vertex="1">
                    <mxGeometry x="3170" y="500" width="120" height="60" as="geometry"/>
                </mxCell>
                <mxCell id="VtX1L7ukf_RsPNeZBsFi-15" value="Revenue" style="rounded=1;whiteSpace=wrap;html=1;" parent="1" vertex="1">
                    <mxGeometry x="3930" y="60" width="120" height="60" as="geometry"/>
                </mxCell>
                <mxCell id="VtX1L7ukf_RsPNeZBsFi-18" style="edgeStyle=none;html=1;entryX=0.25;entryY=1;entryDx=0;entryDy=0;" parent="1" source="VtX1L7ukf_RsPNeZBsFi-16" target="VtX1L7ukf_RsPNeZBsFi-15" edge="1">
                    <mxGeometry relative="1" as="geometry"/>
                </mxCell>
                <mxCell id="VtX1L7ukf_RsPNeZBsFi-16" value="Operational Revenue" style="rounded=1;whiteSpace=wrap;html=1;" parent="1" vertex="1">
                    <mxGeometry x="3600" y="240" width="120" height="60" as="geometry"/>
                </mxCell>
                <mxCell id="VtX1L7ukf_RsPNeZBsFi-19" style="edgeStyle=none;html=1;entryX=0.75;entryY=1;entryDx=0;entryDy=0;" parent="1" source="VtX1L7ukf_RsPNeZBsFi-17" target="VtX1L7ukf_RsPNeZBsFi-15" edge="1">
                    <mxGeometry relative="1" as="geometry"/>
                </mxCell>
                <mxCell id="VtX1L7ukf_RsPNeZBsFi-17" value="Other revenues" style="rounded=1;whiteSpace=wrap;html=1;" parent="1" vertex="1">
                    <mxGeometry x="4210" y="230" width="120" height="60" as="geometry"/>
                </mxCell>
                <mxCell id="VtX1L7ukf_RsPNeZBsFi-20" value="Expenses" style="rounded=1;whiteSpace=wrap;html=1;" parent="1" vertex="1">
                    <mxGeometry x="5150" y="40" width="120" height="60" as="geometry"/>
                </mxCell>
                <mxCell id="VtX1L7ukf_RsPNeZBsFi-23" style="edgeStyle=none;html=1;entryX=0.25;entryY=1;entryDx=0;entryDy=0;" parent="1" source="VtX1L7ukf_RsPNeZBsFi-21" target="VtX1L7ukf_RsPNeZBsFi-20" edge="1">
                    <mxGeometry relative="1" as="geometry"/>
                </mxCell>
                <mxCell id="VtX1L7ukf_RsPNeZBsFi-21" value="Operational Expenses" style="rounded=1;whiteSpace=wrap;html=1;" parent="1" vertex="1">
                    <mxGeometry x="4790" y="220" width="120" height="60" as="geometry"/>
                </mxCell>
                <mxCell id="VtX1L7ukf_RsPNeZBsFi-24" style="edgeStyle=none;html=1;entryX=0.75;entryY=1;entryDx=0;entryDy=0;" parent="1" source="VtX1L7ukf_RsPNeZBsFi-22" target="VtX1L7ukf_RsPNeZBsFi-20" edge="1">
                    <mxGeometry relative="1" as="geometry"/>
                </mxCell>
                <mxCell id="VtX1L7ukf_RsPNeZBsFi-22" value="Other Expenses" style="rounded=1;whiteSpace=wrap;html=1;" parent="1" vertex="1">
                    <mxGeometry x="5450" y="200" width="120" height="60" as="geometry"/>
                </mxCell>
                <mxCell id="j_KiAzoIWVUe4Zsn0NRp-2" style="edgeStyle=none;html=1;" parent="1" source="j_KiAzoIWVUe4Zsn0NRp-1" target="jf70Kcqvtlar9FnrM-hf-3" edge="1">
                    <mxGeometry relative="1" as="geometry"/>
                </mxCell>
                <mxCell id="j_KiAzoIWVUe4Zsn0NRp-1" value="martketable securities" style="rounded=1;whiteSpace=wrap;html=1;" parent="1" vertex="1">
                    <mxGeometry x="-800" y="354" width="120" height="60" as="geometry"/>
                </mxCell>
                <mxCell id="j_KiAzoIWVUe4Zsn0NRp-4" style="edgeStyle=none;html=1;entryX=0.5;entryY=1;entryDx=0;entryDy=0;" parent="1" source="j_KiAzoIWVUe4Zsn0NRp-3" target="VtX1L7ukf_RsPNeZBsFi-10" edge="1">
                    <mxGeometry relative="1" as="geometry"/>
                </mxCell>
                <mxCell id="j_KiAzoIWVUe4Zsn0NRp-3" value="common stock" style="rounded=1;whiteSpace=wrap;html=1;" parent="1" vertex="1">
                    <mxGeometry x="2450" y="510" width="120" height="60" as="geometry"/>
                </mxCell>
                <mxCell id="j_KiAzoIWVUe4Zsn0NRp-6" style="edgeStyle=none;html=1;entryX=0.75;entryY=1;entryDx=0;entryDy=0;" parent="1" source="j_KiAzoIWVUe4Zsn0NRp-5" target="VtX1L7ukf_RsPNeZBsFi-10" edge="1">
                    <mxGeometry relative="1" as="geometry"/>
                </mxCell>
                <mxCell id="j_KiAzoIWVUe4Zsn0NRp-5" value="Other Comprehensive Income" style="rounded=1;whiteSpace=wrap;html=1;" parent="1" vertex="1">
                    <mxGeometry x="2640" y="510" width="120" height="60" as="geometry"/>
                </mxCell>
                <mxCell id="j_KiAzoIWVUe4Zsn0NRp-8" style="edgeStyle=none;html=1;entryX=0.5;entryY=1;entryDx=0;entryDy=0;" parent="1" source="j_KiAzoIWVUe4Zsn0NRp-7" target="VtX1L7ukf_RsPNeZBsFi-11" edge="1">
                    <mxGeometry relative="1" as="geometry"/>
                </mxCell>
                <mxCell id="j_KiAzoIWVUe4Zsn0NRp-7" value="Income Summary" style="rounded=1;whiteSpace=wrap;html=1;" parent="1" vertex="1">
                    <mxGeometry x="2980" y="500" width="120" height="60" as="geometry"/>
                </mxCell>
            </root>
        </mxGraphModel>
    </diagram>
</mxfile>